<?xml version="1.0" encoding="UTF-8"?>
<svg width="700pt" height="700pt" version="1.1" viewBox="0 0 700 700" xmlns="http://www.w3.org/2000/svg" xmlns:xlink="http://www.w3.org/1999/xlink" style="stroke: black; fill: white;">
 <defs>
  <symbol id="t" overflow="visible">
   <path d="m3.6562-0.21875c-0.1875 0.09375-0.38672 0.16797-0.59375 0.21875-0.19922 0.050781-0.40625 0.078125-0.625 0.078125-0.66797 0-1.1992-0.17969-1.5938-0.54688-0.38672-0.375-0.57812-0.87891-0.57812-1.5156 0-0.64453 0.19141-1.1484 0.57812-1.5156 0.39453-0.375 0.92578-0.5625 1.5938-0.5625 0.21875 0 0.42578 0.027344 0.625 0.078125 0.20703 0.054687 0.40625 0.125 0.59375 0.21875v0.82812c-0.1875-0.125-0.375-0.21875-0.5625-0.28125-0.17969-0.0625-0.37109-0.09375-0.57812-0.09375-0.36719 0-0.65625 0.12109-0.875 0.35938-0.21094 0.23047-0.3125 0.55469-0.3125 0.96875 0 0.40625 0.10156 0.73047 0.3125 0.96875 0.21875 0.23047 0.50781 0.34375 0.875 0.34375 0.20703 0 0.39844-0.023437 0.57812-0.078125 0.1875-0.0625 0.375-0.16016 0.5625-0.29688z"/>
  </symbol>
  <symbol id="c" overflow="visible">
   <path d="m2.6875-2.1719c-0.085938-0.039063-0.16797-0.070313-0.25-0.09375-0.085938-0.019531-0.16797-0.03125-0.25-0.03125-0.25 0-0.44531 0.085937-0.57812 0.25-0.125 0.15625-0.1875 0.38281-0.1875 0.67188v1.375h-0.96875v-2.9844h0.96875v0.48438c0.11328-0.19531 0.25-0.33594 0.40625-0.42188 0.16406-0.09375 0.35938-0.14062 0.57812-0.14062h0.10938c0.039063 0 0.09375 0.007812 0.15625 0.015625z"/>
  </symbol>
  <symbol id="b" overflow="visible">
   <path d="m3.4375-1.5v0.26562h-2.2344c0.03125 0.23047 0.11328 0.40234 0.25 0.51562 0.13281 0.10547 0.32812 0.15625 0.57812 0.15625 0.20703 0 0.41406-0.023438 0.625-0.078125 0.20703-0.0625 0.42188-0.15625 0.64062-0.28125v0.73438c-0.21875 0.09375-0.44531 0.16406-0.67188 0.20312-0.23047 0.039062-0.45312 0.0625-0.67188 0.0625-0.54297 0-0.96484-0.13281-1.2656-0.40625-0.30469-0.28125-0.45312-0.67188-0.45312-1.1719 0-0.47656 0.14453-0.85938 0.4375-1.1406 0.30078-0.28125 0.70703-0.42188 1.2188-0.42188 0.46875 0 0.84375 0.14062 1.125 0.42188s0.42188 0.66406 0.42188 1.1406zm-0.96875-0.32812c0-0.17578-0.058594-0.31641-0.17188-0.42188-0.10547-0.11328-0.24219-0.17188-0.40625-0.17188-0.1875 0-0.33984 0.054687-0.45312 0.15625-0.11719 0.10547-0.1875 0.25-0.21875 0.4375z"/>
  </symbol>
  <symbol id="d" overflow="visible">
   <path d="m1.7969-1.3438c-0.19922 0-0.35156 0.039062-0.45312 0.10938-0.09375 0.0625-0.14062 0.16406-0.14062 0.29688 0 0.11719 0.035156 0.21094 0.10938 0.28125 0.082031 0.0625 0.19531 0.09375 0.34375 0.09375 0.17578 0 0.32812-0.0625 0.45312-0.1875s0.1875-0.28516 0.1875-0.48438v-0.10938zm1.4688-0.35938v1.7031h-0.96875v-0.4375c-0.125 0.17969-0.27344 0.30859-0.4375 0.39062-0.15625 0.082031-0.35156 0.125-0.57812 0.125-0.3125 0-0.57031-0.085938-0.76562-0.26562-0.1875-0.1875-0.28125-0.42188-0.28125-0.70312 0-0.35156 0.11719-0.61328 0.35938-0.78125 0.23828-0.16406 0.61719-0.25 1.1406-0.25h0.5625v-0.0625c0-0.15625-0.0625-0.26562-0.1875-0.32812-0.11719-0.070312-0.29688-0.10938-0.54688-0.10938-0.21094 0-0.40234 0.023437-0.57812 0.0625-0.17969 0.042969-0.33984 0.10156-0.48438 0.17188v-0.71875c0.19531-0.050781 0.39844-0.085938 0.60938-0.10938 0.20703-0.03125 0.41406-0.046875 0.625-0.046875 0.53906 0 0.92969 0.10938 1.1719 0.32812 0.23828 0.21094 0.35938 0.55469 0.35938 1.0312z"/>
  </symbol>
  <symbol id="a" overflow="visible">
   <path d="m1.5-3.8438v0.85938h0.98438v0.67188h-0.98438v1.2812c0 0.13672 0.023438 0.23047 0.078125 0.28125 0.0625 0.042969 0.17578 0.0625 0.34375 0.0625h0.48438v0.6875h-0.8125c-0.38672 0-0.65625-0.078125-0.8125-0.23438s-0.23438-0.42188-0.23438-0.79688v-1.2812h-0.46875v-0.67188h0.46875v-0.85938z"/>
  </symbol>
  <symbol id="i" overflow="visible">
   <path d="m2.5-2.5469v-1.6094h0.95312v4.1562h-0.95312v-0.4375c-0.13672 0.17969-0.28125 0.30859-0.4375 0.39062-0.15625 0.082031-0.33984 0.125-0.54688 0.125-0.375 0-0.68359-0.14453-0.92188-0.4375-0.23047-0.28906-0.34375-0.67188-0.34375-1.1406 0-0.45703 0.11328-0.83203 0.34375-1.125 0.23828-0.28906 0.54688-0.4375 0.92188-0.4375 0.19531 0 0.375 0.042969 0.53125 0.125 0.16406 0.085938 0.31641 0.21484 0.45312 0.39062zm-0.64062 1.9375c0.20703 0 0.36328-0.070313 0.46875-0.21875 0.11328-0.15625 0.17188-0.37891 0.17188-0.67188 0-0.28125-0.058594-0.49219-0.17188-0.64062-0.10547-0.15625-0.26172-0.23438-0.46875-0.23438-0.19922 0-0.35547 0.078125-0.46875 0.23438-0.10547 0.14844-0.15625 0.35938-0.15625 0.64062 0 0.29297 0.050781 0.51562 0.15625 0.67188 0.11328 0.14844 0.26953 0.21875 0.46875 0.21875z"/>
  </symbol>
  <symbol id="h" overflow="visible">
   <path d="m2.0469-0.60938c0.20703 0 0.36328-0.070313 0.46875-0.21875 0.11328-0.15625 0.17188-0.37891 0.17188-0.67188 0-0.28125-0.058594-0.49219-0.17188-0.64062-0.10547-0.15625-0.26172-0.23438-0.46875-0.23438-0.19922 0-0.35547 0.078125-0.46875 0.23438-0.10547 0.14844-0.15625 0.35938-0.15625 0.64062 0 0.29297 0.050781 0.51562 0.15625 0.67188 0.11328 0.14844 0.26953 0.21875 0.46875 0.21875zm-0.625-1.9375c0.125-0.17578 0.26562-0.30469 0.42188-0.39062 0.16406-0.082031 0.35156-0.125 0.5625-0.125 0.36328 0 0.66406 0.14844 0.90625 0.4375 0.23828 0.29297 0.35938 0.66797 0.35938 1.125 0 0.46875-0.12109 0.85156-0.35938 1.1406-0.24219 0.29297-0.54297 0.4375-0.90625 0.4375-0.21094 0-0.39844-0.042969-0.5625-0.125-0.15625-0.082031-0.29688-0.21094-0.42188-0.39062v0.4375h-0.96875v-4.1562h0.96875z"/>
  </symbol>
  <symbol id="g" overflow="visible">
   <path d="m0.0625-2.9844h0.95312l0.8125 2.0156 0.6875-2.0156h0.95312l-1.2656 3.2656c-0.125 0.33203-0.27344 0.56641-0.4375 0.70312-0.16797 0.13281-0.39062 0.20312-0.67188 0.20312h-0.54688v-0.64062h0.29688c0.16406 0 0.28516-0.027344 0.35938-0.078125 0.070313-0.054688 0.12891-0.14062 0.17188-0.26562l0.03125-0.09375z"/>
  </symbol>
  <symbol id="f" overflow="visible">
   <path d="m0.5-3.9844h2.7812v0.78125h-1.75v0.73438h1.6406v0.78125h-1.6406v1.6875h-1.0312z"/>
  </symbol>
  <symbol id="s" overflow="visible">
   <path d="m0.45312-4.1562h0.96875v4.1562h-0.96875z"/>
  </symbol>
  <symbol id="r" overflow="visible">
   <path d="m2.4219-4.1562v0.625h-0.51562c-0.13672 0-0.23438 0.027344-0.29688 0.078125-0.054687 0.054687-0.078125 0.13672-0.078125 0.25v0.21875h0.82812v0.67188h-0.82812v2.3125h-0.95312v-2.3125h-0.46875v-0.67188h0.46875v-0.21875c0-0.32031 0.085937-0.5625 0.26562-0.71875 0.1875-0.15625 0.47266-0.23438 0.85938-0.23438z"/>
  </symbol>
  <symbol id="e" overflow="visible">
   <path d="m1.875-2.375c-0.21094 0-0.37109 0.078125-0.48438 0.23438-0.10547 0.14844-0.15625 0.35938-0.15625 0.64062 0 0.29297 0.050781 0.51562 0.15625 0.67188 0.11328 0.14844 0.27344 0.21875 0.48438 0.21875 0.20703 0 0.36719-0.070313 0.48438-0.21875 0.11328-0.15625 0.17188-0.37891 0.17188-0.67188 0-0.28125-0.058594-0.49219-0.17188-0.64062-0.11719-0.15625-0.27734-0.23438-0.48438-0.23438zm0-0.6875c0.51953 0 0.92188 0.14062 1.2031 0.42188 0.28906 0.27344 0.4375 0.65234 0.4375 1.1406 0 0.5-0.14844 0.89062-0.4375 1.1719-0.28125 0.27344-0.68359 0.40625-1.2031 0.40625-0.51172 0-0.91406-0.13281-1.2031-0.40625-0.29297-0.28125-0.4375-0.67188-0.4375-1.1719 0-0.48828 0.14453-0.86719 0.4375-1.1406 0.28906-0.28125 0.69141-0.42188 1.2031-0.42188z"/>
  </symbol>
  <symbol id="q" overflow="visible">
   <path d="m3.2344-2.5c0.11328-0.17578 0.25391-0.3125 0.42188-0.40625 0.16406-0.10156 0.35156-0.15625 0.5625-0.15625 0.33203 0 0.58594 0.10938 0.76562 0.32812 0.1875 0.21094 0.28125 0.51172 0.28125 0.90625v1.8281h-0.96875v-1.5625c0.007813-0.019531 0.015625-0.039062 0.015625-0.0625v-0.10938c0-0.21875-0.03125-0.375-0.09375-0.46875s-0.16406-0.14062-0.29688-0.14062c-0.1875 0-0.33594 0.078125-0.4375 0.23438-0.09375 0.14844-0.14062 0.35938-0.14062 0.64062v1.4688h-0.96875v-1.5625c0-0.33203-0.03125-0.54688-0.09375-0.64062-0.054688-0.09375-0.15234-0.14062-0.29688-0.14062-0.17969 0-0.32031 0.078125-0.42188 0.23438-0.09375 0.14844-0.14062 0.35938-0.14062 0.64062v1.4688h-0.96875v-2.9844h0.96875v0.4375c0.11328-0.17578 0.24219-0.30469 0.39062-0.39062 0.15625-0.082031 0.32812-0.125 0.51562-0.125 0.20703 0 0.39062 0.054688 0.54688 0.15625 0.15625 0.09375 0.27344 0.23047 0.35938 0.40625z"/>
  </symbol>
  <symbol id="p" overflow="visible">
   <path d="m3.4688-1.8281v1.8281h-0.96875v-1.3906c0-0.25781-0.007812-0.4375-0.015625-0.53125-0.011719-0.10156-0.03125-0.17578-0.0625-0.21875-0.03125-0.0625-0.085937-0.10938-0.15625-0.14062-0.0625-0.039062-0.13281-0.0625-0.20312-0.0625-0.21094 0-0.37109 0.078125-0.48438 0.23438-0.10547 0.15625-0.15625 0.37109-0.15625 0.64062v1.4688h-0.96875v-4.1562h0.96875v1.6094c0.13281-0.17578 0.28516-0.30469 0.45312-0.39062 0.16406-0.082031 0.34375-0.125 0.53125-0.125 0.34375 0 0.60156 0.10938 0.78125 0.32812 0.1875 0.21094 0.28125 0.51172 0.28125 0.90625z"/>
  </symbol>
  <symbol id="o" overflow="visible">
   <path d="m0.5-3.9844h1.1562l1.4375 2.7344v-2.7344h0.98438v3.9844h-1.1562l-1.4375-2.7344v2.7344h-0.98438z"/>
  </symbol>
  <symbol id="n" overflow="visible">
   <path d="m0.42188-1.1719v-1.8125h0.96875v0.29688 0.60938 0.48438c0 0.24219 0.003906 0.41797 0.015625 0.53125 0.007812 0.10547 0.03125 0.17969 0.0625 0.21875 0.039062 0.0625 0.09375 0.11719 0.15625 0.15625 0.0625 0.03125 0.13281 0.046875 0.21875 0.046875 0.19531 0 0.35156-0.078125 0.46875-0.23438 0.11328-0.15625 0.17188-0.36719 0.17188-0.64062v-1.4688h0.95312v2.9844h-0.95312v-0.4375c-0.14844 0.17969-0.30469 0.30859-0.46875 0.39062-0.15625 0.082031-0.33594 0.125-0.53125 0.125-0.34375 0-0.60938-0.10156-0.79688-0.3125-0.17969-0.21875-0.26562-0.53125-0.26562-0.9375z"/>
  </symbol>
  <symbol id="m" overflow="visible">
   <path d="m3.4688-1.8281v1.8281h-0.96875v-1.3906c0-0.25781-0.007812-0.4375-0.015625-0.53125-0.011719-0.10156-0.03125-0.17578-0.0625-0.21875-0.03125-0.0625-0.085937-0.10938-0.15625-0.14062-0.0625-0.039062-0.13281-0.0625-0.20312-0.0625-0.21094 0-0.37109 0.078125-0.48438 0.23438-0.10547 0.15625-0.15625 0.37109-0.15625 0.64062v1.4688h-0.96875v-2.9844h0.96875v0.4375c0.13281-0.17578 0.28516-0.30469 0.45312-0.39062 0.16406-0.082031 0.34375-0.125 0.53125-0.125 0.34375 0 0.60156 0.10938 0.78125 0.32812 0.1875 0.21094 0.28125 0.51172 0.28125 0.90625z"/>
  </symbol>
  <symbol id="l" overflow="visible">
   <path d="m0.5-3.9844h1.7031c0.50781 0 0.89844 0.11719 1.1719 0.34375 0.26953 0.21875 0.40625 0.53906 0.40625 0.95312 0 0.41797-0.13672 0.74219-0.40625 0.96875-0.27344 0.21875-0.66406 0.32812-1.1719 0.32812h-0.67188v1.3906h-1.0312zm1.0312 0.75v1.1094h0.5625c0.19531 0 0.34766-0.046875 0.45312-0.14062 0.11328-0.10156 0.17188-0.24219 0.17188-0.42188 0-0.17578-0.058594-0.3125-0.17188-0.40625-0.10547-0.09375-0.25781-0.14062-0.45312-0.14062z"/>
  </symbol>
  <symbol id="k" overflow="visible">
   <path d="m0.45312-2.9844h0.96875v2.9375c0 0.39453-0.10156 0.69531-0.29688 0.90625-0.1875 0.21875-0.46484 0.32812-0.82812 0.32812h-0.48438v-0.64062h0.17188c0.17578 0 0.29688-0.042969 0.35938-0.125 0.070312-0.074219 0.10938-0.23047 0.10938-0.46875zm0-1.1719h0.96875v0.78125h-0.96875z"/>
  </symbol>
  <symbol id="j" overflow="visible">
   <path d="m2.875-2.8906v0.76562c-0.125-0.082031-0.25781-0.14453-0.39062-0.1875-0.13672-0.039062-0.27344-0.0625-0.40625-0.0625-0.27344 0-0.48047 0.078125-0.625 0.23438-0.14844 0.15625-0.21875 0.37109-0.21875 0.64062 0 0.28125 0.070313 0.5 0.21875 0.65625 0.14453 0.15625 0.35156 0.23438 0.625 0.23438 0.14453 0 0.28516-0.019531 0.42188-0.0625 0.13281-0.039063 0.25781-0.10938 0.375-0.20312v0.78125c-0.14844 0.0625-0.29688 0.10156-0.45312 0.125-0.15625 0.03125-0.3125 0.046875-0.46875 0.046875-0.54297 0-0.96484-0.13281-1.2656-0.40625-0.30469-0.28125-0.45312-0.67188-0.45312-1.1719 0-0.48828 0.14844-0.86719 0.45312-1.1406 0.30078-0.28125 0.72266-0.42188 1.2656-0.42188 0.15625 0 0.3125 0.015625 0.46875 0.046875 0.15625 0.023437 0.30469 0.0625 0.45312 0.125z"/>
  </symbol>
 </defs>
 <g>
  <path d="m370.32 484.79c-0.57812 0-1.1484-0.15234-1.6406-0.44922l-81.551-47.055-81.516-47.043c-1.0156-0.58984-1.6406-1.6719-1.6406-2.8438v-56.34c0-1.8164 1.4766-3.2812 3.2812-3.2812 1.8047 0 3.2812 1.4648 3.2812 3.2812v54.438l79.875 46.113 79.898 46.102 118.06-68.152c0.50391-0.28516 1.0703-0.4375 1.6406-0.4375 1.1719 0 2.2656 0.63281 2.8438 1.6406 0.4375 0.76562 0.55859 1.6523 0.32813 2.4922-0.23047 0.84375-0.76563 1.5547-1.5312 1.9922l-119.7 69.094c-0.48828 0.29688-1.0586 0.44922-1.6289 0.44922zm138.63-80.039c-1.1602 0-2.2539-0.62109-2.832-1.6289-0.44922-0.76562-0.55859-1.6523-0.32812-2.4922 0.21875-0.85156 0.76562-1.5547 1.5195-1.9922 0.50391-0.29688 1.0703-0.44922 1.6406-0.44922 1.168 0 2.2617 0.63281 2.8438 1.6406 0.4375 0.76562 0.55859 1.6523 0.32812 2.4922-0.23047 0.85156-0.76562 1.5547-1.5312 1.9922-0.49219 0.29297-1.0586 0.4375-1.6406 0.4375zm18.957-10.93c-1.1719 0-2.2656-0.63281-2.8438-1.6406-0.44922-0.76562-0.55859-1.6523-0.32812-2.4922 0.21875-0.84375 0.76562-1.5547 1.5195-1.9922l3.8047-2.1992v-184.48l-79.875-46.113-79.875-46.133-79.898 46.133-79.875 46.113v86.297c0 1.8047-1.4766 3.2812-3.2812 3.2812-1.8047 0-3.2812-1.4766-3.2812-3.2812l-0.003906-88.188c0-1.1719 0.625-2.2656 1.6406-2.8438l81.516-47.055 81.539-47.098c0.99609-0.57031 2.2969-0.57031 3.293 0l81.508 47.098 81.516 47.055c1.0078 0.57812 1.6406 1.6719 1.6406 2.8438v188.28c0 1.168-0.63281 2.2539-1.6406 2.8438l-5.4375 3.1406c-0.5 0.28125-1.0703 0.43359-1.6367 0.43359zm-320.66-81.352c-1.8047 0-3.2812-1.4766-3.2812-3.2812 0-1.8047 1.4766-3.2812 3.2812-3.2812 1.8047 0 3.2812 1.4766 3.2812 3.2812 0 1.8047-1.4766 3.2812-3.2812 3.2812z"/>
  <path d="m370.32 414.21c-4.4727 0-8.9805-0.25-13.398-0.73438-1.793-0.20703-3.1055-1.8281-2.8984-3.6211 0.19531-1.793 1.8047-3.0938 3.6211-2.9102 4.1875 0.46094 8.4531 0.69922 12.676 0.69922 30.539 0 59.25-11.898 80.852-33.512s33.492-50.336 33.492-80.871c0-30.547-11.891-59.27-33.492-80.883-21.602-21.602-50.312-33.5-80.852-33.5-30.559 0-59.281 11.898-80.895 33.5-21.602 21.613-33.492 50.336-33.5 80.883 0 42.656 23.484 81.484 61.293 101.34 1.0938 0.57813 1.7617 1.707 1.75 2.9414 0 0.51562-0.13281 1.0273-0.37109 1.4883-0.57031 1.082-1.6836 1.7617-2.9102 1.7617-0.52344 0-1.0508-0.13281-1.5195-0.38281-19.227-10.086-35.426-25.199-46.844-43.707-11.746-19.031-17.961-40.973-17.961-63.438 0-16.328 3.2031-32.168 9.5039-47.074 6.0938-14.406 14.809-27.332 25.922-38.445 11.102-11.113 24.039-19.828 38.434-25.922 14.918-6.3125 30.758-9.5039 47.098-9.5039 16.32 0 32.156 3.1953 47.062 9.5039 14.395 6.0938 27.32 14.809 38.434 25.922 11.102 11.113 19.82 24.039 25.91 38.445 6.3008 14.906 9.4961 30.746 9.4961 47.074 0 16.32-3.1953 32.156-9.4961 47.062-6.0898 14.406-14.809 27.344-25.91 38.445-11.113 11.113-24.039 19.828-38.434 25.922-14.906 6.3125-30.742 9.5195-47.062 9.5195zm-34.43-5.1211c-0.31641 0-0.63281-0.042969-0.94141-0.14453h-0.011719c-1.7383-0.52344-2.7109-2.3633-2.1875-4.0898 0.42578-1.3984 1.6836-2.3281 3.1406-2.3281 0.32812 0 0.64453 0.042969 0.95312 0.14062h0.011719c1.7266 0.53516 2.7109 2.375 2.1758 4.1016-0.42969 1.3906-1.6875 2.3203-3.1406 2.3203z"/>
  <path d="m370.32 296.55c-1.1719 0-2.2656-0.63281-2.8438-1.6406-0.4375-0.76562-0.55859-1.6523-0.32812-2.4922 0.23047-0.84375 0.76562-1.5547 1.5312-1.9883l163.02-94.141c0.49219-0.29688 1.0625-0.4375 1.6289-0.4375 1.168 0 2.2617 0.625 2.8438 1.6289 0.90625 1.5742 0.37109 3.5859-1.1914 4.4844l-163.02 94.141c-0.5 0.29297-1.0703 0.44531-1.6406 0.44531z"/>
  <path d="m370.31 296.55c-0.57031 0-1.1367-0.15234-1.6406-0.4375l-163.05-94.148c-0.75391-0.4375-1.3008-1.1367-1.5312-1.9922-0.21875-0.84375-0.10938-1.7266 0.32812-2.4844 0.58984-1.0156 1.6719-1.6523 2.8438-1.6523 0.57812 0 1.1367 0.15234 1.6406 0.44922l163.07 94.141c1.5625 0.90625 2.1016 2.9219 1.1914 4.4844-0.57812 1.0078-1.6719 1.6406-2.8438 1.6406z"/>
  <path d="m370.32 484.79c-1.8164 0-3.293-1.4766-3.293-3.2812v-188.25c0-1.8164 1.4766-3.2812 3.293-3.2812 1.8047 0 3.2695 1.4648 3.2695 3.2812v188.25c0 1.8047-1.4648 3.2812-3.2695 3.2812z"/>
  <path d="m367.57 209.88c-1.8047 0-3.2812-1.4648-3.2812-3.2812v-174.77c0-1.8047 1.4766-3.2812 3.2812-3.2812 1.8047 0 3.2812 1.4766 3.2812 3.2812v174.77c0 1.8164-1.4766 3.2812-3.2812 3.2812z"/>
  <path d="m323.55 57.434c-1.2461 0-2.375-0.6875-2.9297-1.793-0.82031-1.6094-0.17578-3.5859 1.4453-4.4062l44.012-22.336c0.46875-0.23047 0.96094-0.35156 1.4883-0.35156 1.2344 0 2.3633 0.6875 2.9336 1.793 0.80859 1.6172 0.16406 3.5977-1.4453 4.418l-44.023 22.324c-0.46484 0.24219-0.96875 0.35156-1.4805 0.35156z"/>
  <path d="m411.58 57.434c-0.51562 0-1.0156-0.10938-1.4766-0.35156l-44.023-22.324c-0.77734-0.40625-1.3555-1.082-1.6289-1.9141-0.27344-0.83203-0.20703-1.7188 0.1875-2.5039 0.57031-1.1055 1.6836-1.793 2.9297-1.793 0.52344 0 1.0195 0.12109 1.4883 0.35938l44.012 22.324c1.6172 0.82031 2.2617 2.8008 1.4414 4.4062-0.55469 1.1172-1.6836 1.7969-2.9297 1.7969z"/>
  <path d="m598.06 424.9c-0.57031 0-1.1367-0.15234-1.6406-0.4375l-151.35-87.379c-1.5625-0.89453-2.1016-2.9102-1.1914-4.4727 0.57812-1.0156 1.6719-1.6406 2.8438-1.6406 0.57031 0 1.1367 0.14062 1.6406 0.4375l151.34 87.367c0.76562 0.4375 1.3008 1.1484 1.5312 1.9922 0.23047 0.85156 0.10938 1.7266-0.32812 2.4922-0.58203 1.0078-1.6758 1.6406-2.8477 1.6406z"/>
  <path d="m598.06 424.9c-0.054688 0-0.12109 0-0.17578-0.011719-0.875-0.042969-1.6836-0.42578-2.2656-1.082-0.58984-0.65625-0.88672-1.5-0.83203-2.375l2.6797-49.305c0.097656-1.793 1.6172-3.1953 3.457-3.0938 1.8047 0.097656 3.1953 1.6523 3.0938 3.457l-2.6797 49.305c-0.09375 1.7383-1.5273 3.1055-3.2773 3.1055z"/>
  <path d="m556.73 451.85c-1.1172-0.011718-2.1445-0.55859-2.7578-1.5-0.98438-1.5078-0.55859-3.543 0.96094-4.5391l41.332-26.938c0.53516-0.35156 1.1602-0.53516 1.793-0.53516 1.1172 0 2.1445 0.55859 2.7578 1.4883 0.98438 1.5195 0.55859 3.5547-0.96094 4.5391l-41.332 26.949c-0.53516 0.34766-1.1602 0.53516-1.793 0.53516z"/>
  <path d="m145.25 429.62c-1.1719 0-2.2656-0.63281-2.8438-1.6406-0.4375-0.76562-0.55859-1.6406-0.32812-2.4922 0.23047-0.84375 0.76562-1.5547 1.5312-1.9883l151.34-87.402c0.50391-0.28516 1.0703-0.4375 1.6406-0.4375 1.1719 0 2.2656 0.625 2.8438 1.6406 0.4375 0.75391 0.55859 1.6406 0.32812 2.4844-0.21875 0.85156-0.76562 1.5547-1.5195 1.9883l-151.36 87.41c-0.50391 0.28516-1.0703 0.4375-1.6406 0.4375z"/>
  <path d="m186.62 456.57c-0.63281 0-1.2461-0.1875-1.7812-0.53516l-41.379-26.949c-0.73438-0.48047-1.2344-1.2148-1.4219-2.0664-0.17578-0.86328-0.011718-1.7383 0.46094-2.4727 0.61328-0.92969 1.6406-1.4883 2.7578-1.4883 0.63281 0 1.2461 0.1875 1.7812 0.52344l41.375 26.949c1.5195 0.98438 1.9453 3.0312 0.96094 4.5391-0.61328 0.94141-1.6406 1.5-2.7539 1.5z"/>
  <path d="m145.24 429.62c-1.7383 0-3.1719-1.3672-3.2695-3.1055l-2.6484-49.305c-0.042968-0.875 0.25-1.7188 0.84375-2.375 0.57813-0.65625 1.3906-1.0391 2.2656-1.082 1.793-0.097656 3.3594 1.3008 3.4453 3.1055l2.6484 49.305c0.042968 0.875-0.25 1.7188-0.83203 2.3633-0.58984 0.65625-1.3906 1.0391-2.2656 1.082-0.066406 0.011719-0.12109 0.011719-0.1875 0.011719z"/>
  <path d="m315.68 500.38c-0.875 0-1.6953-0.33984-2.3203-0.96484l-124.66-124.65c-1.2812-1.2812-1.2812-3.3594 0-4.6367 1.2344-1.2344 3.4023-1.2461 4.6367 0l123.32 123.31 100.1-26.809 97.551-26.164c1.6172-0.4375 3.3672 0.48047 3.9258 2.0469 0.011719 0 0.011719 0 0.011719 0.011719 0.023438 0.078125 0.054688 0.16406 0.074219 0.26172 0.30469 1.125-0.023438 2.3398-0.85156 3.1719-0.40625 0.40625-0.90625 0.69922-1.4648 0.84375l-97.539 26.172-101.94 27.301c-0.27344 0.078125-0.57031 0.10938-0.85156 0.10938zm208.34-71.41c-0.28516 0-0.57812-0.042969-0.85156-0.10938-0.84375-0.23047-1.5547-0.77734-1.9883-1.5312-0.4375-0.76562-0.55859-1.6406-0.32812-2.4922 0.38281-1.4336 1.6836-2.4297 3.1602-2.4297 0.28516 0 0.57813 0.03125 0.85156 0.10938 0.85156 0.23047 1.5547 0.76562 1.9883 1.5312 0.4375 0.75391 0.55859 1.6406 0.32812 2.4844-0.38281 1.4297-1.6836 2.4375-3.1602 2.4375zm5.6562-21.133c-0.28516 0-0.57031-0.03125-0.85156-0.10938-0.84375-0.23047-1.5547-0.77734-1.9922-1.5312-0.4375-0.76562-0.54688-1.6406-0.32812-2.4922l17.148-63.996 26.84-100.1-73.293-73.258-74.605-74.605c-1.2812-1.2812-1.2812-3.3594 0-4.6367 1.2461-1.2344 3.4023-1.2344 4.6484 0l74.594 74.605 74.637 74.594c0.83203 0.83203 1.1484 2.0469 0.85156 3.1719l-27.344 101.94-17.141 63.984c-0.37891 1.4453-1.6797 2.4375-3.1641 2.4375zm-354.11-47.578c-0.875 0-1.707-0.33984-2.3203-0.96094-1.2812-1.2812-1.2812-3.3594 0-4.6367 1.2344-1.2461 3.4023-1.2461 4.6367 0 1.2812 1.2812 1.2812 3.3594 0 4.6367-0.62109 0.62109-1.4414 0.96094-2.3164 0.96094zm-6.7812-17.793c-0.28516 0-0.57031-0.03125-0.85156-0.10938-1.7266-0.46875-2.7578-2.1992-2.3398-3.9375l0.023437-0.085938 25.004-93.211 27.301-101.94c0.30469-1.1367 1.1914-2.0234 2.3281-2.3203l174.6-46.777c1.7266-0.46094 3.5664 0.61328 4.0156 2.3281 0.23047 0.84375 0.12109 1.7266-0.31641 2.4844-0.44922 0.75391-1.1484 1.3008-2 1.5312l-172.78 46.277-26.809 100.11-25.004 93.211v0.011718c-0.39453 1.4297-1.6953 2.4258-3.1719 2.4258zm248.04-247.58c-1.4766-0.011718-2.7773-1.0078-3.1602-2.4375-0.47266-1.75 0.57031-3.5547 2.3164-4.0156 1.7266-0.46875 3.5664 0.60156 4.0156 2.3203 0.23047 0.84375 0.10938 1.7266-0.32812 2.4844-0.4375 0.76562-1.1367 1.3125-1.9883 1.5312-0.27344 0.074219-0.55859 0.11719-0.85547 0.11719z"/>
  <path d="m495.49 531.45h-382.03c-1.8047 0-3.2812-1.4766-3.2812-3.2812s1.4766-3.2812 3.2812-3.2812h382.02c1.8164 0 3.2812 1.4766 3.2812 3.2812 0.003907 1.8047-1.4648 3.2812-3.2773 3.2812z"/>
  <path d="m601.56 508.21h-264.37c-1.8047 0-3.2812-1.4766-3.2812-3.2812 0-1.8047 1.4766-3.2812 3.2812-3.2812h264.37c1.8047 0 3.2812 1.4766 3.2812 3.2812 0 1.8047-1.4766 3.2812-3.2812 3.2812z"/>
  <path d="m557.86 531.45h-33.055c-1.8047 0-3.2812-1.4766-3.2812-3.2812s1.4766-3.2812 3.2812-3.2812h33.055c1.8047 0 3.2812 1.4766 3.2812 3.2812s-1.4766 3.2812-3.2812 3.2812z"/>
  <path d="m223.7 508.91h-125.26c-1.8047 0-3.2812-1.4648-3.2812-3.2812 0-1.8047 1.4766-3.2812 3.2812-3.2812h125.26c1.8047 0 3.2812 1.4766 3.2812 3.2812 0 1.8164-1.4766 3.2812-3.2812 3.2812z"/>
  <use x="70" y="576.40625" xlink:href="#t"/>
  <use x="74.011719" y="576.40625" xlink:href="#c"/>
  <use x="76.710938" y="576.40625" xlink:href="#b"/>
  <use x="80.417969" y="576.40625" xlink:href="#d"/>
  <use x="84.109375" y="576.40625" xlink:href="#a"/>
  <use x="86.722656" y="576.40625" xlink:href="#b"/>
  <use x="90.433594" y="576.40625" xlink:href="#i"/>
  <use x="96.25" y="576.40625" xlink:href="#h"/>
  <use x="100.167969" y="576.40625" xlink:href="#g"/>
  <use x="105.636719" y="576.40625" xlink:href="#f"/>
  <use x="109.371094" y="576.40625" xlink:href="#s"/>
  <use x="111.246094" y="576.40625" xlink:href="#d"/>
  <use x="114.9375" y="576.40625" xlink:href="#a"/>
  <use x="117.550781" y="576.40625" xlink:href="#d"/>
  <use x="121.238281" y="576.40625" xlink:href="#c"/>
  <use x="123.9375" y="576.40625" xlink:href="#a"/>
  <use x="70" y="581.875" xlink:href="#r"/>
  <use x="72.378906" y="581.875" xlink:href="#c"/>
  <use x="75.078125" y="581.875" xlink:href="#e"/>
  <use x="78.832031" y="581.875" xlink:href="#q"/>
  <use x="86.4375" y="581.875" xlink:href="#a"/>
  <use x="89.050781" y="581.875" xlink:href="#p"/>
  <use x="92.941406" y="581.875" xlink:href="#b"/>
  <use x="98.554688" y="581.875" xlink:href="#o"/>
  <use x="103.132812" y="581.875" xlink:href="#e"/>
  <use x="106.890625" y="581.875" xlink:href="#n"/>
  <use x="110.785156" y="581.875" xlink:href="#m"/>
  <use x="116.582031" y="581.875" xlink:href="#l"/>
  <use x="120.589844" y="581.875" xlink:href="#c"/>
  <use x="123.285156" y="581.875" xlink:href="#e"/>
  <use x="127.042969" y="581.875" xlink:href="#k"/>
  <use x="128.917969" y="581.875" xlink:href="#b"/>
  <use x="132.625" y="581.875" xlink:href="#j"/>
  <use x="135.867188" y="581.875" xlink:href="#a"/>
 </g>
</svg>
